<svg width="17" height="13" viewBox="0 0 17 13" fill="none" xmlns="http://www.w3.org/2000/svg">
<path d="M15.9077 0.999987C15.8406 0.992965 15.773 0.992965 15.706 0.999987H1.92876C1.84046 1.00137 1.75274 1.01482 1.66797 1.03999L8.778 8.23499L15.9077 0.999987Z" fill="#F2F2F2"/>
<path d="M16.6359 1.69499L9.47178 8.94499C9.2874 9.13124 9.03798 9.23578 8.778 9.23578C8.51802 9.23578 8.2686 9.13124 8.08422 8.94499L0.984028 1.74999C0.962201 1.83151 0.950627 1.91552 0.949585 1.99999V12C0.949585 12.2652 1.05327 12.5196 1.23782 12.7071C1.42237 12.8946 1.67268 13 1.93367 13H15.7109C15.9719 13 16.2222 12.8946 16.4067 12.7071C16.5913 12.5196 16.695 12.2652 16.695 12V1.99999C16.6911 1.89582 16.6711 1.79291 16.6359 1.69499ZM2.60777 12H1.92383V11.285L5.50099 7.67999L6.19477 8.38499L2.60777 12ZM15.701 12H15.0122L11.4252 8.38499L12.119 7.67999L15.6961 11.285L15.701 12Z" fill="#F2F2F2"/>
</svg>
