<svg width="17" height="12" viewBox="0 0 17 12" fill="none" xmlns="http://www.w3.org/2000/svg">
<path d="M16.6359 0.695007L9.47178 7.94501C9.2874 8.13126 9.03798 8.2358 8.778 8.2358C8.51802 8.2358 8.2686 8.13126 8.08422 7.94501L0.984028 0.750007C0.962201 0.831528 0.950627 0.91553 0.949585 1.00001V11C0.949585 11.2652 1.05327 11.5196 1.23782 11.7071C1.42237 11.8946 1.67268 12 1.93367 12H15.7109C15.9719 12 16.2222 11.8946 16.4067 11.7071C16.5913 11.5196 16.695 11.2652 16.695 11V1.00001C16.6911 0.895835 16.6711 0.792925 16.6359 0.695007ZM2.60777 11H1.92383V10.285L5.50099 6.68001L6.19477 7.38501L2.60777 11ZM15.701 11H15.0122L11.4252 7.38501L12.119 6.68001L15.6961 10.285L15.701 11Z" fill="#F2F2F2"/>
</svg>
