<svg width="18" height="17" viewBox="0 0 18 17" fill="none" xmlns="http://www.w3.org/2000/svg">
<path fill-rule="evenodd" clip-rule="evenodd" d="M9.49751 0C4.79987 0 0.994995 3.8664 0.994995 8.64C0.994995 12.4632 3.42884 15.6924 6.80859 16.8372C7.23371 16.9128 7.39314 16.6536 7.39314 16.4268C7.39314 16.2216 7.38251 15.5412 7.38251 14.8176C5.24625 15.2172 4.69359 14.2884 4.52354 13.8024C4.42789 13.554 4.01339 12.7872 3.65203 12.582C3.35444 12.42 2.92932 12.0204 3.6414 12.0096C4.31098 11.9988 4.78924 12.636 4.94866 12.8952C5.71389 14.202 6.93613 13.8348 7.42502 13.608C7.49942 13.0464 7.72261 12.6684 7.96706 12.4524C6.07525 12.2364 4.09841 11.4912 4.09841 8.1864C4.09841 7.2468 4.42789 6.4692 4.96992 5.8644C4.8849 5.6484 4.58731 4.7628 5.05495 3.5748C5.05495 3.5748 5.76703 3.348 7.39314 4.4604C8.07334 4.266 8.79605 4.1688 9.51877 4.1688C10.2415 4.1688 10.9642 4.266 11.6444 4.4604C13.2705 3.3372 13.9826 3.5748 13.9826 3.5748C14.4502 4.7628 14.1526 5.6484 14.0676 5.8644C14.6096 6.4692 14.9391 7.236 14.9391 8.1864C14.9391 11.502 12.9517 12.2364 11.0598 12.4524C11.3681 12.7224 11.6338 13.2408 11.6338 14.0508C11.6338 15.2064 11.6231 16.1352 11.6231 16.4268C11.6231 16.6536 11.7826 16.9236 12.2077 16.8372C13.8956 16.2581 15.3622 15.1558 16.4013 13.6853C17.4404 12.2148 17.9995 10.4503 18 8.64C18 3.8664 14.1951 0 9.49751 0Z" fill="#F2F2F2"/>
</svg>
