<svg width="17" height="14" viewBox="0 0 17 14" fill="none" xmlns="http://www.w3.org/2000/svg">
<path d="M16.6516 2.27463C16.06 2.54103 15.4244 2.72103 14.7563 2.80239C15.4457 2.3832 15.9615 1.72345 16.2074 0.946234C15.5597 1.33719 14.8508 1.61237 14.1115 1.75983C13.6144 1.22046 12.9559 0.862949 12.2384 0.742816C11.5208 0.622682 10.7843 0.746644 10.1431 1.09546C9.50201 1.44427 8.99214 1.99841 8.69269 2.67186C8.39325 3.34531 8.32098 4.10037 8.48711 4.81983C7.17467 4.75287 5.89074 4.40623 4.71867 3.80241C3.5466 3.19858 2.51256 2.35107 1.68368 1.31487C1.40027 1.81167 1.2373 2.38767 1.2373 3.00111C1.23698 3.55335 1.37081 4.09713 1.62691 4.5842C1.88301 5.07127 2.25346 5.48658 2.7054 5.79327C2.18128 5.77633 1.66871 5.63241 1.21038 5.37351V5.41671C1.21032 6.19125 1.47398 6.94195 1.9566 7.54143C2.43922 8.14092 3.11109 8.55226 3.8582 8.70568C3.37199 8.83939 2.86223 8.85909 2.36743 8.76328C2.57822 9.42972 2.98881 10.0125 3.54174 10.43C4.09467 10.8475 4.76224 11.0789 5.451 11.0918C4.28179 12.0245 2.83782 12.5304 1.35138 12.5282C1.08807 12.5282 0.824983 12.5126 0.563477 12.4814C2.0723 13.4672 3.82868 13.9903 5.62247 13.9883C11.6947 13.9883 15.0142 8.87776 15.0142 4.44543C15.0142 4.30143 15.0107 4.15599 15.0043 4.01199C15.65 3.5375 16.2073 2.94992 16.6502 2.27679L16.6516 2.27463Z" fill="#2F80ED"/>
</svg>
