<svg width="18" height="18" viewBox="0 0 18 18" fill="none" xmlns="http://www.w3.org/2000/svg">
<g clip-path="url(#clip0)">
<path d="M17.6516 4.27463C17.06 4.54103 16.4244 4.72103 15.7563 4.80239C16.4457 4.3832 16.9615 3.72345 17.2074 2.94623C16.5597 3.33719 15.8508 3.61237 15.1115 3.75983C14.6144 3.22046 13.9559 2.86295 13.2384 2.74282C12.5208 2.62268 11.7843 2.74664 11.1431 3.09546C10.502 3.44427 9.99214 3.99841 9.69269 4.67186C9.39325 5.34531 9.32098 6.10037 9.48711 6.81983C8.17467 6.75287 6.89074 6.40623 5.71867 5.80241C4.5466 5.19858 3.51256 4.35107 2.68368 3.31487C2.40027 3.81167 2.2373 4.38767 2.2373 5.00111C2.23698 5.55335 2.37081 6.09713 2.62691 6.5842C2.88301 7.07127 3.25346 7.48658 3.7054 7.79327C3.18128 7.77633 2.66871 7.63241 2.21038 7.37351V7.41671C2.21032 8.19125 2.47398 8.94195 2.9566 9.54143C3.43922 10.1409 4.11109 10.5523 4.8582 10.7057C4.37199 10.8394 3.86223 10.8591 3.36743 10.7633C3.57822 11.4297 3.98881 12.0125 4.54174 12.43C5.09467 12.8475 5.76224 13.0789 6.451 13.0918C5.28179 14.0245 3.83782 14.5304 2.35138 14.5282C2.08807 14.5282 1.82498 14.5126 1.56348 14.4814C3.0723 15.4672 4.82868 15.9903 6.62247 15.9883C12.6947 15.9883 16.0142 10.8778 16.0142 6.44543C16.0142 6.30143 16.0107 6.15599 16.0043 6.01199C16.65 5.5375 17.2073 4.94992 17.6502 4.27679L17.6516 4.27463Z" fill="#F2F2F2"/>
</g>
<defs>
<clipPath id="clip0">
<rect width="17.005" height="17.28" fill="white" transform="translate(0.899536 0.720001)"/>
</clipPath>
</defs>
</svg>
