<svg width="31" height="31" viewBox="0 0 31 31" fill="none" xmlns="http://www.w3.org/2000/svg">
<path d="M5.78217 6.29686H25.1572C25.3835 6.29676 25.6096 6.31112 25.8341 6.33985C25.758 5.80569 25.5745 5.29247 25.2947 4.83114C25.0149 4.36981 24.6446 3.96991 24.206 3.65557C23.7675 3.34123 23.2699 3.11895 22.7431 3.00213C22.2164 2.88531 21.6714 2.87638 21.1411 2.97587L5.20697 5.69624H5.18881C4.18862 5.88751 3.29918 6.4534 2.70215 7.27833C3.60163 6.63855 4.67836 6.29544 5.78217 6.29686Z" fill="#CD6767"/>
<path d="M25.1572 7.75H5.78223C4.75486 7.75112 3.76989 8.15974 3.04343 8.8862C2.31697 9.61266 1.90835 10.5976 1.90723 11.625V23.25C1.90835 24.2774 2.31697 25.2623 3.04343 25.9888C3.76989 26.7153 4.75486 27.1239 5.78223 27.125H25.1572C26.1846 27.1239 27.1696 26.7153 27.896 25.9888C28.6225 25.2623 29.0311 24.2774 29.0322 23.25V11.625C29.0311 10.5976 28.6225 9.61266 27.896 8.8862C27.1696 8.15974 26.1846 7.75112 25.1572 7.75ZM22.2812 19.375C21.898 19.375 21.5235 19.2614 21.2048 19.0485C20.8862 18.8356 20.6379 18.533 20.4912 18.1789C20.3446 17.8249 20.3062 17.4354 20.381 17.0595C20.4557 16.6837 20.6403 16.3384 20.9112 16.0675C21.1822 15.7965 21.5274 15.612 21.9033 15.5372C22.2791 15.4625 22.6687 15.5008 23.0227 15.6475C23.3767 15.7941 23.6793 16.0425 23.8922 16.3611C24.1051 16.6797 24.2188 17.0543 24.2188 17.4375C24.2188 17.9514 24.0146 18.4442 23.6513 18.8075C23.2879 19.1709 22.7951 19.375 22.2812 19.375Z" fill="#CD6767"/>
<path d="M1.9375 15.7119V9.6875C1.9375 8.37545 2.66406 6.17578 5.18584 5.69928C7.32617 5.29785 9.44531 5.29785 9.44531 5.29785C9.44531 5.29785 10.8379 6.2666 9.6875 6.2666C8.53711 6.2666 8.56738 7.75 9.6875 7.75C10.8076 7.75 9.6875 9.17285 9.6875 9.17285L5.17676 14.2891L1.9375 15.7119Z" fill="#CD6767"/>
</svg>
